#!OML:ASF H:\Dans Jumps\Project 1\Capture day 1\Session 1\subject.ASF
:FULLY-SPECIFIED
:DEGREES
133
root 0.781444 17.5635 -13.939 7.38374 -0.364789 -1.56998
lowerback -2.8115 -0.825088 0.335933
upperback 3.26766 -1.2036 1.85274
thorax 4.98719 -0.62262 1.64338
lowerneck -13.156 -0.0362485 -2.20194
upperneck 28.1604 0.635852 -0.465733
head 11.304 -0.00841643 0.292923
rclavicle 3.62782e-015 2.78299e-015
rhumerus -22.9696 -18.5817 -78.995
rradius 25.9407
rwrist 32.3163
rhand -17.9058 -26.4882
rfingers 7.12502
rthumb 8.36126 -56.3027
lclavicle 3.62782e-015 2.78299e-015
lhumerus -19.7638 4.09183 85.7241
lradius 18.2191
lwrist -0.915853
lhand -24.1115 -3.46242
lfingers 7.12502
lthumb 2.36968 26.5042
rfemur -13.4279 -2.67534 19.3012
rtibia 19.8382
rfoot -13.1188 -3.97082
rtoes 11.31
lfemur -12.8594 8.44287 -18.1165
ltibia 17.9866
lfoot -10.1279 5.41489
ltoes -9.54568
134
root 0.782124 17.5635 -13.9389 7.35644 -0.420731 -1.57517
lowerback -2.83607 -0.815497 0.333034
upperback 3.25838 -1.1905 1.84519
thorax 4.99102 -0.616043 1.63784
lowerneck -13.1515 -0.0655346 -2.22113
upperneck 28.1365 0.597718 -0.463828
head 11.2943 -0.0272509 0.291752
rclavicle -7.65321e-015 9.93923e-015
rhumerus -22.9978 -18.5885 -78.9904
rradius 25.9088
rwrist 32.368
rhand -17.934 -26.453
rfingers 7.12502
rthumb 8.334 -56.2686
lclavicle -7.65321e-015 9.93923e-015
lhumerus -19.7959 4.10575 85.704
lradius 18.2215
lwrist -0.917849
lhand -24.1234 -3.44614
lfingers 7.12502
lthumb 2.35821 26.5206
rfemur -13.395 -2.67099 19.2997
rtibia 19.8172
rfoot -13.1104 -3.91694
rtoes 11.3323
lfemur -12.7991 8.43702 -18.1065
ltibia 17.9521
lfoot -10.1139 5.45559
ltoes -9.5191
135
root 0.782906 17.5634 -13.9389 7.32905 -0.473907 -1.58123
lowerback -2.85991 -0.807197 0.332234
upperback 3.24804 -1.17924 1.83853
thorax 4.99335 -0.610313 1.63192
lowerneck -13.1593 -0.0950259 -2.25151
upperneck 28.1289 0.558757 -0.448277
head 11.2933 -0.0461872 0.297422
rclavicle -6.55989e-015 -1.55052e-014
rhumerus -23.0285 -18.6047 -78.9794
rradius 25.8708
rwrist 32.4444
rhand -17.9814 -26.3851
rfingers 7.12502
rthumb 8.28826 -56.2026
lclavicle -6.55989e-015 -1.55052e-014
lhumerus -19.8302 4.14248 85.6807
lradius 18.2169
lwrist -0.937499
lhand -24.1368 -3.44638
lfingers 7.12502
lthumb 2.34527 26.5205
rfemur -13.3613 -2.66389 19.2992
rtibia 19.7962
rfoot -13.1019 -3.86945
rtoes 11.352
lfemur -12.7397 8.43065 -18.0956
ltibia 17.9187
lfoot -10.1016 5.49355
ltoes -9.49353
136
root 0.78382 17.5634 -13.9389 7.30102 -0.524002 -1.58444
lowerback -2.8817 -0.800978 0.33032
upperback 3.23563 -1.17062 1.83158
thorax 4.99244 -0.605917 1.62617
lowerneck -13.1672 -0.12035 -2.27691
upperneck 28.1263 0.525585 -0.436344
head 11.2942 -0.0624866 0.301689
rclavicle -4.42296e-015 1.19271e-015
rhumerus -23.0585 -18.6309 -78.9631
rradius 25.827
rwrist 32.5341
rhand -18.0253 -26.3017
rfingers 7.12502
rthumb 8.24587 -56.1208
lclavicle -4.42296e-015 1.19271e-015
lhumerus -19.8651 4.19971 85.6539
lradius 18.1992
lwrist -0.973844
lhand -24.1488 -3.45523
lfingers 7.12502
lthumb 2.33365 26.5117
rfemur -13.3266 -2.65847 19.2956
rtibia 19.7767
rfoot -13.0943 -3.82516
rtoes 11.3636
lfemur -12.6806 8.42214 -18.0882
ltibia 17.8862
lfoot -10.0899 5.53027
ltoes -9.4744
137
root 0.784857 17.5634 -13.939 7.27436 -0.571906 -1.58865
lowerback -2.90195 -0.796176 0.330779
upperback 3.22091 -1.164 1.82568
thorax 4.98826 -0.602433 1.62008
lowerneck -13.1782 -0.140701 -2.29659
upperneck 28.1313 0.499348 -0.42819
head 11.2986 -0.07561 0.304528
rclavicle 2.28602e-015 1.43125e-014
rhumerus -23.0862 -18.6578 -78.945
rradius 25.7857
rwrist 32.6167
rhand -18.0555 -26.2357
rfingers 7.12502
rthumb 8.21679 -56.0559
lclavicle 2.28602e-015 1.43125e-014
lhumerus -19.9003 4.2694 85.626
lradius 18.1709
lwrist -1.02147
lhand -24.1583 -3.45718
lfingers 7.12502
lthumb 2.32449 26.5099
rfemur -13.2948 -2.65191 19.2931
rtibia 19.7599
rfoot -13.0869 -3.78563
rtoes 11.3725
lfemur -12.6243 8.41213 -18.0802
ltibia 17.855
lfoot -10.0789 5.56463
ltoes -9.4428
138
root 0.78598 17.5633 -13.9392 7.24854 -0.619128 -1.59084
lowerback -2.92009 -0.792799 0.329523
upperback 3.20441 -1.15914 1.82036
thorax 4.98113 -0.599894 1.61544
lowerneck -13.1879 -0.155392 -2.31295
upperneck 28.1393 0.481053 -0.422484
head 11.3038 -0.0851286 0.306965
rclavicle -8.49804e-015 8.34896e-015
rhumerus -23.1095 -18.6852 -78.926
rradius 25.7483
rwrist 32.6803
rhand -18.0618 -26.1945
rfingers 7.12502
rthumb 8.21073 -56.015
lclavicle -8.49804e-015 8.34896e-015
lhumerus -19.9352 4.34871 85.5976
lradius 18.1343
lwrist -1.0785
lhand -24.1584 -3.44879
lfingers 7.12502
lthumb 2.32437 26.5183
rfemur -13.2669 -2.64635 19.2887
rtibia 19.748
rfoot -13.0806 -3.74853
rtoes 11.3702
lfemur -12.5696 8.4044 -18.0749
ltibia 17.8236
lfoot -10.0685 5.5931
ltoes -9.4024
139
root 0.787161 17.5632 -13.9395 7.22361 -0.665392 -1.59297
lowerback -2.93864 -0.790838 0.328694
upperback 3.18745 -1.15624 1.81573
thorax 4.97379 -0.598317 1.61113
lowerneck -13.1989 -0.164437 -2.32537
upperneck 28.1534 0.470583 -0.419032
head 11.3115 -0.0910508 0.308955
rclavicle 4.07509e-015 -3.97569e-015
rhumerus -23.1228 -18.722 -78.9051
rradius 25.7081
rwrist 32.722
rhand -18.036 -26.1825
rfingers 7.12502
rthumb 8.23563 -56.002
lclavicle 4.07509e-015 -3.97569e-015
lhumerus -19.9685 4.43041 85.5689
lradius 18.0902
lwrist -1.13958
lhand -24.1465 -3.43467
lfingers 7.12502
lthumb 2.33584 26.5323
rfemur -13.2427 -2.63964 19.2844
rtibia 19.7409
rfoot -13.0751 -3.71554
rtoes 11.3631
lfemur -12.5169 8.39947 -18.0702
ltibia 17.7935
lfoot -10.0612 5.61572
ltoes -9.35667
140
root 0.788373 17.563 -13.9397 7.19898 -0.710554 -1.59321
lowerback -2.95731 -0.790609 0.325301
upperback 3.17081 -1.15556 1.81212
thorax 4.96701 -0.597965 1.60916
lowerneck -13.2067 -0.168342 -2.33847
upperneck 28.1698 0.467545 -0.415542
head 11.3194 -0.0937062 0.312073
rclavicle 3.23025e-015 -1.63003e-014
rhumerus -23.1256 -18.7791 -78.8782
rradius 25.6565
rwrist 32.7699
rhand -18.0019 -26.1724
rfingers 7.12502
rthumb 8.26854 -55.9906
lclavicle 3.23025e-015 -1.63003e-014
lhumerus -20.0006 4.51124 85.5426
lradius 18.0427
lwrist -1.20259
lhand -24.1327 -3.41348
lfingers 7.12502
lthumb 2.3492 26.5533
rfemur -13.2216 -2.63231 19.2781
rtibia 19.7392
rfoot -13.0712 -3.686
rtoes 11.3474
lfemur -12.4658 8.3952 -18.0676
ltibia 17.7648
lfoot -10.0541 5.63461
ltoes -9.31405
141
root 0.789546 17.5627 -13.94 7.17583 -0.754404 -1.59309
lowerback -2.97744 -0.791718 0.321107
upperback 3.15438 -1.15669 1.80915
thorax 4.96136 -0.598551 1.60816
lowerneck -13.2152 -0.168325 -2.34626
upperneck 28.1912 0.469969 -0.415977
head 11.3294 -0.0938798 0.313581
rclavicle 1.75924e-014 -1.47101e-014
rhumerus -23.1254 -18.8448 -78.8481
rradius 25.6032
rwrist 32.8107
rhand -17.9611 -26.161
rfingers 7.12502
rthumb 8.30788 -55.9777
lclavicle 1.75924e-014 -1.47101e-014
lhumerus -20.0312 4.58927 85.5174
lradius 17.9933
lwrist -1.26971
lhand -24.1148 -3.39066
lfingers 7.12502
lthumb 2.36644 26.576
rfemur -13.2046 -2.62079 19.2716
rtibia 19.7416
rfoot -13.0685 -3.66156
rtoes 11.3379
lfemur -12.4186 8.39124 -18.0655
ltibia 17.7392
lfoot -10.0483 5.65169
ltoes -9.27266
142
root 0.790688 17.5624 -13.9404 7.15513 -0.796183 -1.59293
lowerback -2.99842 -0.793807 0.316779
upperback 3.13871 -1.15917 1.8066
thorax 4.95705 -0.599821 1.60756
lowerneck -13.225 -0.164471 -2.34838
upperneck 28.2157 0.47725 -0.418963
head 11.3407 -0.0916172 0.313839
rclavicle 8.19987e-015 1.23246e-014
rhumerus -23.1206 -18.922 -78.8154
rradius 25.5471
rwrist 32.8547
rhand -17.9254 -26.1405
rfingers 7.12502
rthumb 8.34234 -55.9558
lclavicle 8.19987e-015 1.23246e-014
lhumerus -20.0581 4.65403 85.4959
lradius 17.9424
lwrist -1.3325
lhand -24.1012 -3.36486
lfingers 7.12502
lthumb 2.37966 26.6016
rfemur -13.1922 -2.60573 19.2651
rtibia 19.7475
rfoot -13.0665 -3.64195
rtoes 11.3291
lfemur -12.3775 8.38455 -18.0635
ltibia 17.7178
lfoot -10.0419 5.66971
ltoes -9.23479
143
root 0.791791 17.5621 -13.941 7.13675 -0.832056 -1.59329
lowerback -3.01974 -0.797833 0.312081
upperback 3.12434 -1.16432 1.80592
thorax 4.9544 -0.60248 1.60889
lowerneck -13.2408 -0.157402 -2.34533
upperneck 28.2443 0.488972 -0.425128
head 11.3548 -0.0872508 0.312649
rclavicle 5.26779e-015 1.90833e-014
rhumerus -23.116 -18.9989 -78.7813
rradius 25.498
rwrist 32.8971
rhand -17.8988 -26.1155
rfingers 7.12502
rthumb 8.36796 -55.9297
lclavicle 5.26779e-015 1.90833e-014
lhumerus -20.0832 4.71174 85.4794
lradius 17.8955
lwrist -1.39728
lhand -24.0959 -3.35505
lfingers 7.12502
lthumb 2.38475 26.6114
rfemur -13.183 -2.58819 19.2594
rtibia 19.7552
rfoot -13.0646 -3.63024
rtoes 11.3233
lfemur -12.3439 8.37389 -18.0612
ltibia 17.7022
lfoot -10.0369 5.68851
ltoes -9.2086
144
root 0.792823 17.5617 -13.9419 7.12102 -0.863161 -1.59345
lowerback -3.04167 -0.803714 0.306277
upperback 3.11253 -1.17201 1.80658
thorax 4.95491 -0.606477 1.61203
lowerneck -13.2679 -0.146183 -2.33718
upperneck 28.2763 0.506758 -0.434759
head 11.3724 -0.0801018 0.310148
rclavicle -4.72114e-015 6.36111e-015
rhumerus -23.1123 -19.0704 -78.7486
rradius 25.4613
rwrist 32.9363
rhand -17.8828 -26.089
rfingers 7.12502
rthumb 8.38347 -55.9026
lclavicle -4.72114e-015 6.36111e-015
lhumerus -20.1025 4.76199 85.4673
lradius 17.851
lwrist -1.4637
lhand -24.0866 -3.34526
lfingers 7.12502
lthumb 2.3937 26.6211
rfemur -13.178 -2.56707 19.2538
rtibia 19.765
rfoot -13.0626 -3.6259
rtoes 11.3138
lfemur -12.3181 8.36087 -18.0593
ltibia 17.6917
lfoot -10.0319 5.70734
ltoes -9.18976
145
root 0.793838 17.5613 -13.9431 7.10709 -0.890637 -1.59495
lowerback -3.06188 -0.809812 0.302176
upperback 3.10312 -1.18014 1.80809
thorax 4.95694 -0.610658 1.61508
lowerneck -13.3063 -0.131957 -2.32143
upperneck 28.3108 0.528424 -0.4482
head 11.3933 -0.0709167 0.305483
rclavicle -1.14301e-015 -9.14409e-015
rhumerus -23.1093 -19.1345 -78.7182
rradius 25.4352
rwrist 32.9737
rhand -17.8854 -26.0689
rfingers 7.12502
rthumb 8.38098 -55.8826
lclavicle -1.14301e-015 -9.14409e-015
lhumerus -20.1177 4.79757 85.4606
lradius 17.811
lwrist -1.52425
lhand -24.0743 -3.33581
lfingers 7.12502
lthumb 2.40565 26.6304
rfemur -13.1765 -2.54085 19.2497
rtibia 19.7767
rfoot -13.0604 -3.62916
rtoes 11.3007
lfemur -12.299 8.34555 -18.0568
ltibia 17.6852
lfoot -10.0254 5.72962
ltoes -9.18149
146
root 0.794832 17.5608 -13.9445 7.09422 -0.916759 -1.5941
lowerback -3.07992 -0.81631 0.294866
upperback 3.09618 -1.18868 1.81041
thorax 4.96042 -0.615187 1.62075
lowerneck -13.3515 -0.113517 -2.30236
upperneck 28.3438 0.555899 -0.463054
head 11.415 -0.0589326 0.300529
rclavicle -1.63997e-014 1.07344e-014
rhumerus -23.108 -19.1771 -78.693
rradius 25.4277
rwrist 32.9911
rhand -17.8992 -26.0642
rfingers 7.12502
rthumb 8.3676 -55.8785
lclavicle -1.63997e-014 1.07344e-014
lhumerus -20.1311 4.81794 85.4609
lradius 17.7811
lwrist -1.57259
lhand -24.0608 -3.30808
lfingers 7.12502
lthumb 2.41869 26.658
rfemur -13.1787 -2.50958 19.2428
rtibia 19.7913
rfoot -13.0589 -3.63816
rtoes 11.2856
lfemur -12.2833 8.32709 -18.0574
ltibia 17.6795
lfoot -10.0169 5.75539
ltoes -9.16768
